<svg width="25" height="24" viewBox="0 0 25 24" fill="none" xmlns="http://www.w3.org/2000/svg">
<path d="M17.8535 9.85393L12.8537 14.8534C12.8073 14.8999 12.7522 14.9367 12.6915 14.9619C12.6308 14.9871 12.5657 15 12.5 15C12.4343 15 12.3692 14.9871 12.3085 14.9619C12.2478 14.9367 12.1927 14.8999 12.1463 14.8534L7.14652 9.85393C7.05271 9.76012 7 9.63289 7 9.50022C7 9.36755 7.05271 9.24032 7.14652 9.14651C7.24034 9.0527 7.36758 9 7.50025 9C7.63293 9 7.76017 9.0527 7.85398 9.14651L12.5 13.7929L17.146 9.14651C17.1925 9.10006 17.2476 9.06322 17.3083 9.03808C17.369 9.01294 17.4341 9 17.4997 9C17.5654 9 17.6305 9.01294 17.6912 9.03808C17.7519 9.06322 17.807 9.10006 17.8535 9.14651C17.8999 9.19296 17.9368 9.24811 17.9619 9.3088C17.9871 9.36948 18 9.43453 18 9.50022C18 9.56591 17.9871 9.63096 17.9619 9.69165C17.9368 9.75234 17.8999 9.80748 17.8535 9.85393Z" fill="#FFFAF3"/>
</svg>
