<svg width="50" height="50" viewBox="0 0 50 50" fill="none" xmlns="http://www.w3.org/2000/svg">
<path d="M32.8125 20.3125H17.1875C15.1155 20.3125 13.1284 21.1356 11.6632 22.6007C10.1981 24.0659 9.375 26.053 9.375 28.125V29.6875C9.375 30.7135 9.57707 31.7294 9.96969 32.6772C10.3623 33.6251 10.9378 34.4863 11.6632 35.2118C13.1284 36.6769 15.1155 37.5 17.1875 37.5H32.8125C33.8384 37.5 34.8544 37.2979 35.8022 36.9053C36.7501 36.5127 37.6113 35.9372 38.3368 35.2118C39.0622 34.4863 39.6377 33.6251 40.0303 32.6772C40.4229 31.7294 40.625 30.7135 40.625 29.6875V28.125C40.625 26.053 39.8019 24.0659 38.3368 22.6007C36.8716 21.1356 34.8845 20.3125 32.8125 20.3125ZM37.5 29.6875C37.5 30.9307 37.0061 32.123 36.1271 33.0021C35.248 33.8811 34.0557 34.375 32.8125 34.375H17.1875C15.9443 34.375 14.752 33.8811 13.8729 33.0021C12.9939 32.123 12.5 30.9307 12.5 29.6875V28.125C12.5 26.8818 12.9939 25.6895 13.8729 24.8104C14.752 23.9314 15.9443 23.4375 17.1875 23.4375H32.8125C34.0557 23.4375 35.248 23.9314 36.1271 24.8104C37.0061 25.6895 37.5 26.8818 37.5 28.125V29.6875ZM40.625 7.8125C39.2394 7.81381 37.8933 8.27468 36.7977 9.12293C35.702 9.97117 34.9187 11.1589 34.5703 12.5H15.4297C15.0518 11.0242 14.148 9.73728 12.8881 8.88101C11.6282 8.02473 10.0989 7.65809 8.58766 7.84999C7.07643 8.04189 5.68732 8.77912 4.68139 9.92313C3.67547 11.0671 3.122 12.5391 3.125 14.0625V29.6875C3.12913 33.4158 4.61204 36.9903 7.24838 39.6266C9.88471 42.263 13.4592 43.7459 17.1875 43.75H32.8125C36.5408 43.7459 40.1153 42.263 42.7516 39.6266C45.388 36.9903 46.8709 33.4158 46.875 29.6875V14.0625C46.875 12.4049 46.2165 10.8152 45.0444 9.64308C43.8723 8.47098 42.2826 7.8125 40.625 7.8125ZM43.75 29.6875C43.7469 32.5874 42.5936 35.3675 40.5431 37.4181C38.4925 39.4686 35.7123 40.6219 32.8125 40.625H17.1875C14.2876 40.6219 11.5075 39.4686 9.45694 37.4181C7.40644 35.3675 6.2531 32.5874 6.25 29.6875V14.0625C6.25 13.2337 6.57924 12.4388 7.16529 11.8528C7.75134 11.2667 8.5462 10.9375 9.375 10.9375C10.2038 10.9375 10.9987 11.2667 11.5847 11.8528C12.1708 12.4388 12.5 13.2337 12.5 14.0625C12.5 14.4769 12.6646 14.8743 12.9576 15.1674C13.2507 15.4604 13.6481 15.625 14.0625 15.625H35.9375C36.3519 15.625 36.7493 15.4604 37.0424 15.1674C37.3354 14.8743 37.5 14.4769 37.5 14.0625C37.5 13.2337 37.8292 12.4388 38.4153 11.8528C39.0013 11.2667 39.7962 10.9375 40.625 10.9375C41.4538 10.9375 42.2487 11.2667 42.8347 11.8528C43.4208 12.4388 43.75 13.2337 43.75 14.0625V29.6875ZM20.3125 28.9062C20.3125 29.3698 20.175 29.8229 19.9175 30.2084C19.66 30.5938 19.2939 30.8942 18.8657 31.0716C18.4374 31.249 17.9661 31.2954 17.5115 31.205C17.0569 31.1145 16.6392 30.8913 16.3115 30.5635C15.9837 30.2358 15.7605 29.8181 15.67 29.3635C15.5796 28.9088 15.626 28.4376 15.8034 28.0093C15.9808 27.5811 16.2812 27.215 16.6666 26.9575C17.0521 26.7 17.5052 26.5625 17.9687 26.5625C18.5903 26.5625 19.1865 26.8094 19.626 27.249C20.0656 27.6885 20.3125 28.2846 20.3125 28.9062ZM34.375 28.9062C34.375 29.3698 34.2375 29.8229 33.98 30.2084C33.7225 30.5938 33.3564 30.8942 32.9282 31.0716C32.4999 31.249 32.0286 31.2954 31.574 31.205C31.1194 31.1145 30.7017 30.8913 30.374 30.5635C30.0462 30.2358 29.823 29.8181 29.7325 29.3635C29.6421 28.9088 29.6885 28.4376 29.8659 28.0093C30.0433 27.5811 30.3437 27.215 30.7291 26.9575C31.1146 26.7 31.5677 26.5625 32.0312 26.5625C32.6528 26.5625 33.249 26.8094 33.6885 27.249C34.1281 27.6885 34.375 28.2846 34.375 28.9062Z" fill="black"/>
</svg>
