<svg width="24" height="24" viewBox="0 0 24 24" fill="none" xmlns="http://www.w3.org/2000/svg">
<path d="M17.3535 9.85393L12.3537 14.8534C12.3073 14.8999 12.2522 14.9367 12.1915 14.9619C12.1308 14.9871 12.0657 15 12 15C11.9343 15 11.8692 14.9871 11.8085 14.9619C11.7478 14.9367 11.6927 14.8999 11.6463 14.8534L6.64652 9.85393C6.55271 9.76012 6.5 9.63289 6.5 9.50022C6.5 9.36755 6.55271 9.24032 6.64652 9.14651C6.74034 9.0527 6.86758 9 7.00025 9C7.13293 9 7.26017 9.0527 7.35398 9.14651L12 13.7929L16.646 9.14651C16.6925 9.10006 16.7476 9.06322 16.8083 9.03808C16.869 9.01294 16.9341 9 16.9997 9C17.0654 9 17.1305 9.01294 17.1912 9.03808C17.2519 9.06322 17.307 9.10006 17.3535 9.14651C17.3999 9.19296 17.4368 9.24811 17.4619 9.3088C17.4871 9.36948 17.5 9.43453 17.5 9.50022C17.5 9.56591 17.4871 9.63096 17.4619 9.69165C17.4368 9.75234 17.3999 9.80748 17.3535 9.85393Z" fill="#FFFAF3"/>
</svg>
