<svg width="56" height="56" viewBox="0 0 56 56" fill="none" xmlns="http://www.w3.org/2000/svg">
<path opacity="0.8" d="M22.1666 38.5001L38.5 28.0001L22.1666 17.5001V38.5001ZM28 51.3334C24.7722 51.3334 21.7388 50.7205 18.9 49.4948C16.0611 48.2705 13.5916 46.6084 11.4916 44.5084C9.39163 42.4084 7.72952 39.939 6.50529 37.1001C5.27952 34.2612 4.66663 31.2279 4.66663 28.0001C4.66663 24.7723 5.27952 21.739 6.50529 18.9001C7.72952 16.0612 9.39163 13.5917 11.4916 11.4917C13.5916 9.39175 16.0611 7.72886 18.9 6.50308C21.7388 5.27886 24.7722 4.66675 28 4.66675C31.2277 4.66675 34.2611 5.27886 37.1 6.50308C39.9389 7.72886 42.4083 9.39175 44.5083 11.4917C46.6083 13.5917 48.2704 16.0612 49.4946 18.9001C50.7204 21.739 51.3333 24.7723 51.3333 28.0001C51.3333 31.2279 50.7204 34.2612 49.4946 37.1001C48.2704 39.939 46.6083 42.4084 44.5083 44.5084C42.4083 46.6084 39.9389 48.2705 37.1 49.4948C34.2611 50.7205 31.2277 51.3334 28 51.3334Z" fill="#FAFCFC"/>
</svg>
