<svg width="25" height="25" viewBox="0 0 25 25" fill="none" xmlns="http://www.w3.org/2000/svg">
<path d="M21.6744 10.1394C21.3209 9.77 20.9553 9.38938 20.8175 9.05469C20.69 8.74813 20.6825 8.24 20.675 7.74781C20.6609 6.83281 20.6459 5.79594 19.925 5.075C19.2041 4.35406 18.1672 4.33906 17.2522 4.325C16.76 4.3175 16.2519 4.31 15.9453 4.1825C15.6116 4.04469 15.23 3.67906 14.8606 3.32562C14.2137 2.70406 13.4788 2 12.5 2C11.5212 2 10.7872 2.70406 10.1394 3.32562C9.77 3.67906 9.38938 4.04469 9.05469 4.1825C8.75 4.31 8.24 4.3175 7.74781 4.325C6.83281 4.33906 5.79594 4.35406 5.075 5.075C4.35406 5.79594 4.34375 6.83281 4.325 7.74781C4.3175 8.24 4.31 8.74813 4.1825 9.05469C4.04469 9.38844 3.67906 9.77 3.32562 10.1394C2.70406 10.7872 2 11.5212 2 12.5C2 13.4788 2.70406 14.2128 3.32562 14.8606C3.67906 15.23 4.04469 15.6106 4.1825 15.9453C4.31 16.2519 4.3175 16.76 4.325 17.2522C4.33906 18.1672 4.35406 19.2041 5.075 19.925C5.79594 20.6459 6.83281 20.6609 7.74781 20.675C8.24 20.6825 8.74813 20.69 9.05469 20.8175C9.38844 20.9553 9.77 21.3209 10.1394 21.6744C10.7863 22.2959 11.5212 23 12.5 23C13.4788 23 14.2128 22.2959 14.8606 21.6744C15.23 21.3209 15.6106 20.9553 15.9453 20.8175C16.2519 20.69 16.76 20.6825 17.2522 20.675C18.1672 20.6609 19.2041 20.6459 19.925 19.925C20.6459 19.2041 20.6609 18.1672 20.675 17.2522C20.6825 16.76 20.69 16.2519 20.8175 15.9453C20.9553 15.6116 21.3209 15.23 21.6744 14.8606C22.2959 14.2128 23 13.4788 23 12.5C23 11.5212 22.2959 10.7872 21.6744 10.1394ZM20.5916 13.8228C20.1425 14.2916 19.6775 14.7763 19.4309 15.3716C19.1947 15.9434 19.1844 16.5969 19.175 17.2297C19.1656 17.8859 19.1553 18.5731 18.8638 18.8638C18.5722 19.1544 17.8897 19.1656 17.2297 19.175C16.5969 19.1844 15.9434 19.1947 15.3716 19.4309C14.7763 19.6775 14.2916 20.1425 13.8228 20.5916C13.3541 21.0406 12.875 21.5 12.5 21.5C12.125 21.5 11.6422 21.0387 11.1772 20.5916C10.7122 20.1444 10.2238 19.6775 9.62844 19.4309C9.05656 19.1947 8.40313 19.1844 7.77031 19.175C7.11406 19.1656 6.42688 19.1553 6.13625 18.8638C5.84562 18.5722 5.83437 17.8897 5.825 17.2297C5.81562 16.5969 5.80531 15.9434 5.56906 15.3716C5.3225 14.7763 4.8575 14.2916 4.40844 13.8228C3.95937 13.3541 3.5 12.875 3.5 12.5C3.5 12.125 3.96125 11.6431 4.40844 11.1772C4.85562 10.7113 5.3225 10.2238 5.56906 9.62844C5.80531 9.05656 5.81562 8.40313 5.825 7.77031C5.83437 7.11406 5.84469 6.42688 6.13625 6.13625C6.42781 5.84562 7.11031 5.83437 7.77031 5.825C8.40313 5.81562 9.05656 5.80531 9.62844 5.56906C10.2238 5.3225 10.7084 4.8575 11.1772 4.40844C11.6459 3.95937 12.125 3.5 12.5 3.5C12.875 3.5 13.3578 3.96125 13.8228 4.40844C14.2878 4.85562 14.7763 5.3225 15.3716 5.56906C15.9434 5.80531 16.5969 5.81562 17.2297 5.825C17.8859 5.83437 18.5731 5.84469 18.8638 6.13625C19.1544 6.42781 19.1656 7.11031 19.175 7.77031C19.1844 8.40313 19.1947 9.05656 19.4309 9.62844C19.6775 10.2238 20.1425 10.7084 20.5916 11.1772C21.0406 11.6459 21.5 12.125 21.5 12.5C21.5 12.875 21.0387 13.3569 20.5916 13.8228ZM11.75 9.5C11.75 9.05499 11.618 8.61998 11.3708 8.24997C11.1236 7.87996 10.7722 7.59157 10.361 7.42127C9.9499 7.25097 9.4975 7.20642 9.06105 7.29323C8.62459 7.38005 8.22368 7.59434 7.90901 7.90901C7.59434 8.22368 7.38005 8.62459 7.29323 9.06105C7.20642 9.4975 7.25097 9.9499 7.42127 10.361C7.59157 10.7722 7.87996 11.1236 8.24997 11.3708C8.61998 11.618 9.05499 11.75 9.5 11.75C10.0967 11.75 10.669 11.5129 11.091 11.091C11.5129 10.669 11.75 10.0967 11.75 9.5ZM8.75 9.5C8.75 9.35166 8.79399 9.20666 8.8764 9.08332C8.95881 8.95999 9.07594 8.86386 9.21299 8.80709C9.35003 8.75032 9.50083 8.73547 9.64632 8.76441C9.7918 8.79335 9.92544 8.86478 10.0303 8.96967C10.1352 9.07456 10.2066 9.2082 10.2356 9.35368C10.2645 9.49917 10.2497 9.64997 10.1929 9.78701C10.1361 9.92406 10.04 10.0412 9.91668 10.1236C9.79334 10.206 9.64834 10.25 9.5 10.25C9.30109 10.25 9.11032 10.171 8.96967 10.0303C8.82902 9.88968 8.75 9.69891 8.75 9.5ZM15.5 13.25C15.055 13.25 14.62 13.382 14.25 13.6292C13.88 13.8764 13.5916 14.2278 13.4213 14.639C13.251 15.0501 13.2064 15.5025 13.2932 15.939C13.38 16.3754 13.5943 16.7763 13.909 17.091C14.2237 17.4057 14.6246 17.62 15.061 17.7068C15.4975 17.7936 15.9499 17.749 16.361 17.5787C16.7722 17.4084 17.1236 17.12 17.3708 16.75C17.618 16.38 17.75 15.945 17.75 15.5C17.75 14.9033 17.5129 14.331 17.091 13.909C16.669 13.4871 16.0967 13.25 15.5 13.25ZM15.5 16.25C15.3517 16.25 15.2067 16.206 15.0833 16.1236C14.96 16.0412 14.8639 15.9241 14.8071 15.787C14.7503 15.65 14.7355 15.4992 14.7644 15.3537C14.7934 15.2082 14.8648 15.0746 14.9697 14.9697C15.0746 14.8648 15.2082 14.7934 15.3537 14.7644C15.4992 14.7355 15.65 14.7503 15.787 14.8071C15.9241 14.8639 16.0412 14.96 16.1236 15.0833C16.206 15.2067 16.25 15.3517 16.25 15.5C16.25 15.6989 16.171 15.8897 16.0303 16.0303C15.8897 16.171 15.6989 16.25 15.5 16.25ZM16.7806 9.28063L9.28063 16.7806C9.21094 16.8503 9.12822 16.9056 9.03717 16.9433C8.94613 16.981 8.84855 17.0004 8.75 17.0004C8.65145 17.0004 8.55387 16.981 8.46283 16.9433C8.37178 16.9056 8.28906 16.8503 8.21937 16.7806C8.14969 16.7109 8.09442 16.6282 8.0567 16.5372C8.01899 16.4461 7.99958 16.3485 7.99958 16.25C7.99958 16.1515 8.01899 16.0539 8.0567 15.9628C8.09442 15.8718 8.14969 15.7891 8.21937 15.7194L15.7194 8.21937C15.7891 8.14969 15.8718 8.09442 15.9628 8.0567C16.0539 8.01899 16.1515 7.99958 16.25 7.99958C16.3485 7.99958 16.4461 8.01899 16.5372 8.0567C16.6282 8.09442 16.7109 8.14969 16.7806 8.21937C16.8503 8.28906 16.9056 8.37178 16.9433 8.46283C16.981 8.55387 17.0004 8.65145 17.0004 8.75C17.0004 8.84855 16.981 8.94613 16.9433 9.03717C16.9056 9.12822 16.8503 9.21094 16.7806 9.28063Z" fill="black"/>
</svg>
