<svg width="24" height="22" viewBox="0 0 24 22" fill="none" xmlns="http://www.w3.org/2000/svg">
<path d="M22.4456 8.71875L21.1331 5.4375C21.0218 5.15988 20.8296 4.92209 20.5816 4.75494C20.3335 4.58778 20.041 4.49897 19.7419 4.5H16.5V3.75C16.5 3.55109 16.421 3.36032 16.2803 3.21967C16.1397 3.07902 15.9489 3 15.75 3H1.5C1.10218 3 0.720644 3.15804 0.43934 3.43934C0.158035 3.72064 0 4.10218 0 4.5V15C0 15.3978 0.158035 15.7794 0.43934 16.0607C0.720644 16.342 1.10218 16.5 1.5 16.5H3.09375C3.25898 17.1453 3.63428 17.7173 4.16048 18.1257C4.68669 18.5342 5.33387 18.7559 6 18.7559C6.66613 18.7559 7.31331 18.5342 7.83952 18.1257C8.36573 17.7173 8.74102 17.1453 8.90625 16.5H13.5938C13.759 17.1453 14.1343 17.7173 14.6605 18.1257C15.1867 18.5342 15.8339 18.7559 16.5 18.7559C17.1661 18.7559 17.8133 18.5342 18.3395 18.1257C18.8657 17.7173 19.241 17.1453 19.4063 16.5H21C21.3978 16.5 21.7794 16.342 22.0607 16.0607C22.342 15.7794 22.5 15.3978 22.5 15V9C22.5003 8.90361 22.4818 8.8081 22.4456 8.71875ZM16.5 6H19.7419L20.6419 8.25H16.5V6ZM1.5 4.5H15V10.5H1.5V4.5ZM6 17.25C5.70333 17.25 5.41332 17.162 5.16665 16.9972C4.91997 16.8324 4.72771 16.5981 4.61418 16.324C4.50065 16.0499 4.47094 15.7483 4.52882 15.4574C4.5867 15.1664 4.72956 14.8991 4.93934 14.6893C5.14912 14.4796 5.41639 14.3367 5.70737 14.2788C5.99834 14.2209 6.29994 14.2506 6.57403 14.3642C6.84811 14.4777 7.08238 14.67 7.2472 14.9166C7.41203 15.1633 7.5 15.4533 7.5 15.75C7.5 16.1478 7.34197 16.5294 7.06066 16.8107C6.77936 17.092 6.39783 17.25 6 17.25ZM13.5938 15H8.90625C8.74102 14.3547 8.36573 13.7827 7.83952 13.3743C7.31331 12.9658 6.66613 12.7441 6 12.7441C5.33387 12.7441 4.68669 12.9658 4.16048 13.3743C3.63428 13.7827 3.25898 14.3547 3.09375 15H1.5V12H15V13.1541C14.6551 13.3534 14.3532 13.6192 14.1119 13.9361C13.8705 14.2529 13.6944 14.6146 13.5938 15ZM16.5 17.25C16.2033 17.25 15.9133 17.162 15.6666 16.9972C15.42 16.8324 15.2277 16.5981 15.1142 16.324C15.0007 16.0499 14.9709 15.7483 15.0288 15.4574C15.0867 15.1664 15.2296 14.8991 15.4393 14.6893C15.6491 14.4796 15.9164 14.3367 16.2074 14.2788C16.4983 14.2209 16.7999 14.2506 17.074 14.3642C17.3481 14.4777 17.5824 14.67 17.7472 14.9166C17.912 15.1633 18 15.4533 18 15.75C18 16.1478 17.842 16.5294 17.5607 16.8107C17.2794 17.092 16.8978 17.25 16.5 17.25ZM21 15H19.4063C19.239 14.3563 18.863 13.7862 18.3371 13.379C17.8112 12.9718 17.1651 12.7506 16.5 12.75V9.75H21V15Z" fill="black"/>
</svg>
